<svg width="10" height="16" viewBox="0 0 10 16" fill="none" xmlns="http://www.w3.org/2000/svg">
<path fill-rule="evenodd" clip-rule="evenodd" d="M8.5218 1.52064C7.59301 0.564378 6.33839 0.0188166 5.02482 0H4.97507C3.66139 0.0185432 2.40658 0.563923 1.47759 1.52012C0.548588 2.47632 0.0187203 3.76786 0.000704507 5.12C-0.0154622 6.08 0.246936 7.02336 0.754321 7.82976L4.66915 16H5.33198L9.24557 7.82976C9.7542 7.02336 10.0166 6.08 9.99919 5.12C9.98091 3.76797 9.45086 2.47662 8.5218 1.52064ZM4.90668 1.28L5.00865 1.2928L5.10068 1.28C6.0776 1.32379 7.00111 1.75112 7.68136 2.47415C8.36162 3.19717 8.74692 4.16095 8.75808 5.16736C8.7676 5.88164 8.56497 6.58187 8.17732 7.1744L8.15245 7.21792L8.13131 7.26272L4.99995 13.7971L1.86982 7.26912L1.84868 7.2192L1.82381 7.17568C1.43616 6.58315 1.23354 5.88292 1.24305 5.16864C1.25366 4.16106 1.63942 3.19607 2.32082 2.47257C3.00221 1.74908 3.92732 1.32223 4.90543 1.28H4.90668ZM5.66775 4.05632C5.53196 3.96286 5.37961 3.89785 5.21941 3.86499C5.0592 3.83213 4.89428 3.83207 4.73406 3.86482C4.57383 3.89756 4.42144 3.96247 4.28558 4.05584C4.14973 4.1492 4.03307 4.26919 3.94227 4.40896C3.85147 4.54873 3.7883 4.70554 3.75638 4.87043C3.72446 5.03533 3.7244 5.20508 3.75622 5.36999C3.78803 5.53491 3.85109 5.69176 3.9418 5.8316C4.03251 5.97143 4.14909 6.0915 4.28488 6.18496C4.55913 6.37371 4.89499 6.44259 5.21858 6.37646C5.54217 6.31033 5.82698 6.11459 6.01036 5.83232C6.19374 5.55004 6.26067 5.20435 6.19642 4.87129C6.13217 4.53822 5.942 4.24507 5.66775 4.05632ZM3.59469 2.99136C3.86603 2.79504 4.17278 2.65656 4.49689 2.58407C4.821 2.51158 5.15593 2.50655 5.48196 2.56927C5.80799 2.63199 6.11854 2.76119 6.39533 2.94928C6.67213 3.13736 6.90958 3.38053 7.09371 3.66448C7.27784 3.94842 7.40494 4.26741 7.46752 4.60266C7.5301 4.93791 7.52691 5.28266 7.45812 5.61662C7.38933 5.95059 7.25634 6.26701 7.06698 6.54729C6.87761 6.82757 6.63569 7.06603 6.35546 7.24864C5.80691 7.6061 5.14431 7.72862 4.50918 7.59003C3.87405 7.45144 3.31675 7.06272 2.95632 6.50691C2.59588 5.95109 2.46088 5.27225 2.58016 4.61537C2.69944 3.95849 3.06354 3.37566 3.59469 2.99136Z" fill="#D08E17"/>
</svg>
