<svg width="20" height="17" viewBox="0 0 20 17" fill="none" xmlns="http://www.w3.org/2000/svg">
<path d="M17 0.466675H3C2.20435 0.466675 1.44129 0.782745 0.87868 1.34535C0.316071 1.90796 0 2.67103 0 3.46667V13.4667C0 14.2623 0.316071 15.0254 0.87868 15.588C1.44129 16.1506 2.20435 16.4667 3 16.4667H17C17.7956 16.4667 18.5587 16.1506 19.1213 15.588C19.6839 15.0254 20 14.2623 20 13.4667V3.46667C20 2.67103 19.6839 1.90796 19.1213 1.34535C18.5587 0.782745 17.7956 0.466675 17 0.466675ZM16.33 2.46667L10 7.21667L3.67 2.46667H16.33ZM17 14.4667H3C2.73478 14.4667 2.48043 14.3613 2.29289 14.1738C2.10536 13.9862 2 13.7319 2 13.4667V3.71667L9.4 9.26667C9.5731 9.3965 9.78363 9.46667 10 9.46667C10.2164 9.46667 10.4269 9.3965 10.6 9.26667L18 3.71667V13.4667C18 13.7319 17.8946 13.9862 17.7071 14.1738C17.5196 14.3613 17.2652 14.4667 17 14.4667Z" fill="#D08E17"/>
</svg>
