<svg width="20" height="20" viewBox="0 0 20 20" fill="none" xmlns="http://www.w3.org/2000/svg">
<path d="M10 0C4.48 0 0 4.48 0 10C0 15.52 4.48 20 10 20C15.52 20 20 15.52 20 10C20 4.48 15.52 0 10 0ZM10 15.92C6.73 15.92 4.08 13.27 4.08 10C4.08 6.73 6.73 4.08 10 4.08C13.27 4.08 15.92 6.73 15.92 10C15.92 13.27 13.27 15.92 10 15.92ZM10 4.81C7.14 4.81 4.81 7.14 4.81 10C4.81 12.86 7.14 15.19 10 15.19C12.86 15.19 15.19 12.86 15.19 10C15.19 7.14 12.86 4.81 10 4.81ZM8.07 12.95V7.05L13.18 10L8.07 12.95Z" fill="#F1F7F4"/>
</svg>
