<svg width="52" height="54" viewBox="0 0 52 54" fill="none" xmlns="http://www.w3.org/2000/svg">
<path d="M11.5708 0V0.0114626C8.74262 0.378264 6.24252 3.67947 6.24252 7.89769C6.24252 10.236 7.04572 12.2993 8.22224 13.7321L9.37613 15.1305L7.60004 15.463C6.0502 15.761 4.90762 16.5977 3.95736 17.9274C2.99578 19.2456 2.27177 21.0796 1.7627 23.1772C0.835058 27.0287 0.642743 31.7398 0.620117 35.8433H5.5977L6.94391 54H17.838L19.0258 35.8433H23.7659C23.7659 31.6939 23.7319 26.9255 22.8835 23.0397C22.431 20.9191 21.7296 19.0966 20.768 17.7784C19.7951 16.4717 18.596 15.6349 16.8651 15.3713L15.0551 15.0847L16.1977 13.6404C17.3289 12.2076 18.0869 10.1787 18.0869 7.89769C18.0869 3.40437 15.2814 0.0114626 12.1591 0.0114626C11.831 0.0114626 11.6274 0 11.5708 0ZM47.8732 0.917003C45.9274 0.917003 44.3663 2.49539 44.3663 4.47039C44.3663 6.44538 45.9274 8.02377 47.8732 8.02377C49.819 8.02377 51.3801 6.44538 51.3801 4.47039C51.3801 2.49539 49.819 0.917003 47.8732 0.917003ZM33.2798 3.43876V8.94078H21.6278V11.004H33.2798V29.1148H27.0579V31.1781H33.2798V43.7869H21.6278V45.8501H33.2798V49.5181H42.4205C42.3639 49.1857 42.33 48.8419 42.33 48.4865C42.33 48.1312 42.3639 47.7873 42.4205 47.4549H35.3161V31.1781H42.4205C42.3639 30.8457 42.33 30.5018 42.33 30.1465C42.33 29.7911 42.3639 29.4473 42.4205 29.1148H35.3161V5.50202H42.4205C42.3639 5.16731 42.33 4.82229 42.33 4.47039C42.33 4.11849 42.3639 3.77347 42.4205 3.43876H33.2798ZM47.8732 26.5931C45.9274 26.5931 44.3663 28.1749 44.3663 30.1465C44.3663 32.118 45.9274 33.6999 47.8732 33.6999C49.819 33.6999 51.3801 32.118 51.3801 30.1465C51.3801 28.1749 49.819 26.5931 47.8732 26.5931ZM47.8732 44.9331C45.9274 44.9331 44.3663 46.515 44.3663 48.4865C44.3663 50.4581 45.9274 52.0399 47.8732 52.0399C49.819 52.0399 51.3801 50.4581 51.3801 48.4865C51.3801 46.515 49.819 44.9331 47.8732 44.9331Z" fill="white"/>
</svg>
