<svg  width="52" height="54" viewBox="0 0 52 54" fill="none" xmlns="http://www.w3.org/2000/svg">
<path d="M28.6128 5.98796C27.9577 5.98796 27.4295 5.45976 27.4295 4.80459C27.4295 4.14942 27.9577 3.62122 28.6128 3.62122H53.7311V1.18337C53.7311 0.5282 54.2593 0 54.9145 0C55.5697 0 56.0979 0.5282 56.0979 1.18337V3.62122H86.0292C86.6844 3.62122 87.2126 4.14942 87.2126 4.80459C87.2126 5.45976 86.6844 5.98796 86.0292 5.98796H83.3052V39.9959H86.1562C86.8113 39.9959 87.3395 40.5241 87.3395 41.1793C87.3395 41.8345 86.8113 42.3627 86.1562 42.3627H55.6306V43.5647C55.6949 43.607 55.7373 43.6493 55.7779 43.6916L63.0237 50.5786C63.4876 51.0221 63.5096 51.7822 63.066 52.2461C62.6225 52.7117 61.8624 52.732 61.3968 52.2884L55.6526 46.8185V52.8166C55.6526 53.4718 55.1244 54 54.4692 54C53.8141 54 53.2859 53.4718 53.2859 52.8166V46.5866L47.2878 52.2884C46.8222 52.732 46.0621 52.732 45.6185 52.2461C45.1749 51.7822 45.1749 51.0221 45.6608 50.5786L52.9066 43.6916C53.0116 43.5867 53.1589 43.502 53.2859 43.4377V42.3627H28.2658C27.6106 42.3627 27.0824 41.8345 27.0824 41.1793C27.0824 40.5241 27.6106 39.9959 28.2658 39.9959H80.9385V5.98796H28.6128ZM51.7368 34.9916C51.5945 34.9916 51.4536 34.9635 51.3222 34.9091C51.1907 34.8546 51.0713 34.7748 50.9707 34.6742C50.8701 34.5736 50.7903 34.4542 50.7358 34.3227C50.6814 34.1913 50.6533 34.0504 50.6533 33.9081C50.6533 33.3105 51.1392 32.8263 51.7368 32.8263H74.8236C75.4212 32.8263 75.9054 33.3105 75.9054 33.9081C75.9054 34.5074 75.4212 34.9916 74.8236 34.9916H51.7368ZM53.3722 27.7136C52.7746 27.7136 52.2904 27.2294 52.2904 26.6318C52.2904 26.0325 52.7746 25.5483 53.3722 25.5483H74.8236C75.4212 25.5483 75.9054 26.0325 75.9054 26.6318C75.9054 27.2294 75.4212 27.7136 74.8236 27.7136H53.3722ZM49.8543 20.4356C49.2566 20.4356 48.7725 19.9514 48.7725 19.3538C48.7725 18.7562 49.2566 18.2703 49.8543 18.2703H74.8236C75.4212 18.2703 75.9054 18.7562 75.9054 19.3538C75.9054 19.9514 75.4212 20.4356 74.8236 20.4356H49.8543ZM38.7197 13.1576C38.1221 13.1576 37.6379 12.6734 37.6379 12.0758C37.6379 11.4782 38.1221 10.9923 38.7197 10.9923H74.8236C75.4212 10.9923 75.9054 11.4782 75.9054 12.0758C75.9054 12.6734 75.4212 13.1576 74.8236 13.1576H38.7197ZM37.9376 27.4664L46.1467 18.8595C46.6292 18.3516 47.4317 18.3329 47.9378 18.8137C48.4457 19.2962 48.4643 20.0987 47.9836 20.6049L40.2502 28.7141C40.885 29.4827 41.1864 30.5171 40.9849 31.5718C40.626 33.4493 38.8128 34.6801 36.9371 34.3212L28.3521 32.6705C27.4955 32.5216 26.693 32.0509 26.1428 31.2908L23.3579 27.4427L23.3511 27.7898V27.5392L23.1294 40.3785L23.4663 42.3017H9.06772L9.36568 40.5207L9.10158 27.783V27.7898L9.05757 25.6059L9.04233 25.6228C7.56946 27.0973 7.50683 30.6119 7.34261 32.7467L6.96847 37.636C6.88213 38.7516 6.78901 39.3814 5.91545 40.1364C4.64574 41.2301 2.50755 41.4552 1.37835 40.0721C0.648688 39.1816 0.613136 37.7595 0.687626 36.461C1.06346 29.9652 1.82698 20.1884 9.10158 16.9718V17.0531C12.1861 15.8274 15.8209 16.3607 19.1391 16.3607C20.7186 16.3607 22.1068 16.5926 23.3393 17.0649C24.1265 17.2461 24.8528 17.7015 25.3641 18.4074L30.944 26.1222L37.9376 27.4664ZM16.1967 0.529893C20.2412 0.529893 23.5187 3.80744 23.5187 7.8519C23.5187 11.8947 20.2412 15.1722 16.1967 15.1722C12.1523 15.1722 8.87473 11.8947 8.87473 7.8519C8.87473 3.80744 12.1523 0.529893 16.1967 0.529893Z" fill="white"/>
</svg>
