<svg width="52" height="54" viewBox="0 0 52 54" fill="none" xmlns="http://www.w3.org/2000/svg">
<path d="M43.5252 10.8C42.0402 10.8 40.7685 10.2708 39.7101 9.2124C38.6517 8.154 38.1234 6.8832 38.1252 5.4C38.1252 3.915 38.6544 2.6433 39.7128 1.5849C40.7712 0.526504 42.042 -0.00179542 43.5252 4.58404e-06C45.0102 4.58404e-06 46.2819 0.529205 47.3403 1.5876C48.3987 2.646 48.927 3.9168 48.9252 5.4C48.9252 6.885 48.396 8.1567 47.3376 9.2151C46.2792 10.2735 45.0084 10.8018 43.5252 10.8ZM40.8252 54V32.4C40.8252 30.6 40.3635 28.98 39.4401 27.54C38.5167 26.1 37.3359 24.975 35.8977 24.165L38.2602 17.2125C38.6202 16.0875 39.2844 15.1875 40.2528 14.5125C41.2212 13.8375 42.312 13.5 43.5252 13.5C44.7402 13.5 45.8319 13.8375 46.8003 14.5125C47.7687 15.1875 48.432 16.0875 48.7902 17.2125L55.6752 37.8H48.9252V54H40.8252ZM28.6752 25.65C27.5502 25.65 26.5935 25.2558 25.8051 24.4674C25.0167 23.679 24.6234 22.7232 24.6252 21.6C24.6252 20.475 25.0194 19.5183 25.8078 18.7299C26.5962 17.9415 27.552 17.5482 28.6752 17.55C29.8002 17.55 30.7569 17.9442 31.5453 18.7326C32.3337 19.521 32.727 20.4768 32.7252 21.6C32.7252 22.725 32.331 23.6817 31.5426 24.4701C30.7542 25.2585 29.7984 25.6518 28.6752 25.65ZM9.77519 10.8C8.29019 10.8 7.01849 10.2708 5.96009 9.2124C4.90169 8.154 4.37339 6.8832 4.3752 5.4C4.3752 3.915 4.90439 2.6433 5.96279 1.5849C7.02119 0.526504 8.29199 -0.00179542 9.77519 4.58404e-06C11.2602 4.58404e-06 12.5319 0.529205 13.5903 1.5876C14.6487 2.646 15.177 3.9168 15.1752 5.4C15.1752 6.885 14.646 8.1567 13.5876 9.2151C12.5292 10.2735 11.2584 10.8018 9.77519 10.8ZM4.3752 54V35.1H0.325195V18.9C0.325195 17.415 0.854395 16.1433 1.9128 15.0849C2.9712 14.0265 4.242 13.4982 5.72519 13.5H13.8252C15.3102 13.5 16.5819 14.0292 17.6403 15.0876C18.6987 16.146 19.227 17.4168 19.2252 18.9V35.1H15.1752V54H4.3752ZM24.6252 54V43.2H21.9252V32.4C21.9252 31.275 22.3194 30.3183 23.1078 29.5299C23.8962 28.7415 24.852 28.3482 25.9752 28.35H31.3752C32.5002 28.35 33.4569 28.7442 34.2453 29.5326C35.0337 30.321 35.427 31.2768 35.4252 32.4V43.2H32.7252V54H24.6252Z" fill="white"/>
</svg>
