<svg  width="52" height="54" viewBox="0 0 52 54" fill="none" xmlns="http://www.w3.org/2000/svg">
<path fill-rule="evenodd" clip-rule="evenodd" d="M31.6912 17.7304L32.9135 18.9454H32.923C33.4404 19.468 33.473 20.3384 32.9135 20.841L32.1959 21.5681C32.2033 21.5923 32.2202 21.6165 32.2275 21.6408C32.3592 21.9168 32.4741 22.2361 32.5626 22.528L32.5784 22.5838H33.4593C34.1959 22.5838 34.8102 23.1971 34.8102 23.9347V25.6754C34.8102 26.4425 34.2127 27.0242 33.4593 27.0242H32.4372C32.3434 27.3298 32.139 27.7154 31.9915 28.0084L32.6143 28.6227L32.6385 28.6469C33.1548 29.1632 33.1169 30.0189 32.6385 30.5415L32.6216 30.5584L31.3983 31.7733C30.8862 32.3212 29.9937 32.3149 29.4794 31.7733L28.7692 31.0536C28.6934 31.1063 27.8167 31.4319 27.745 31.4319V32.3044C27.745 33.042 27.1318 33.6552 26.3931 33.6552H24.6534C23.8863 33.6552 23.3036 33.0567 23.3036 32.3044V31.2823C22.9717 31.1611 22.6377 30.9914 22.3205 30.8344L21.7072 31.4561L21.683 31.4804C21.1625 31.9956 20.3121 31.9619 19.7863 31.4804L19.7705 31.4646L18.5482 30.2254C18.0013 29.6796 18.0203 28.8661 18.5566 28.3224L19.2742 27.6111C19.2584 27.5869 19.25 27.5626 19.2415 27.531C19.1256 27.2486 18.9897 26.9473 18.9128 26.6522L18.897 26.5869H18.035C17.2911 26.5869 16.6863 25.9736 16.6863 25.2308V23.49C16.6863 22.7303 17.2795 22.1392 18.0393 22.1392H19.0593C19.1825 21.782 19.3448 21.489 19.505 21.1539L18.8917 20.5333C18.3533 19.9949 18.3596 19.154 18.8917 18.6124L20.1056 17.3901V17.3827C20.6219 16.8622 21.5028 16.8348 22.0012 17.3901L22.7272 18.1098C22.7525 18.1013 22.7757 18.0845 22.7915 18.0771C23.0781 17.9433 23.3711 17.8369 23.6724 17.741C23.6967 17.7336 23.7125 17.7252 23.7356 17.7252V16.8537C23.7356 16.1161 24.3489 15.5029 25.0876 15.5029H26.8272C27.5901 15.5029 28.1792 16.0908 28.1792 16.8537V17.8758C28.2034 17.8832 28.235 17.9001 28.2603 17.9075C28.5385 18.017 28.8535 18.1561 29.1149 18.2994L29.1633 18.3237L29.785 17.7094C30.3688 17.1256 31.1675 17.2152 31.6912 17.7304ZM2.24618 27.1496C1.77201 27.1559 1.33471 26.9747 1.01333 26.6723C0.309449 26.0095 0.272569 24.8936 0.935355 24.1887C1.24304 23.862 1.67612 23.6523 2.15977 23.6355L5.92786 23.5058C6.41257 23.489 6.85829 23.6723 7.18599 23.979C7.88987 24.6449 7.92992 25.7576 7.26502 26.4657C6.94538 26.8044 6.50498 27.0032 6.03955 27.0189C4.79195 27.0189 3.5001 27.1254 2.24618 27.1496ZM20.2689 44.9974C19.7758 45.0101 19.3427 44.6465 19.2732 44.1492C19.2005 43.6297 19.5503 43.1492 20.0603 43.0502C19.4987 39.8616 17.9623 38.1051 16.3396 36.2495C15.0773 34.8038 13.7654 33.3022 12.7317 31.0915C11.7159 28.9156 11.1574 26.6659 11.1743 24.3298C11.1964 21.9938 11.7886 19.5881 13.0784 17.1003C13.0868 17.0824 13.0952 17.0697 13.1037 17.0529C14.7959 14.1889 17.1626 12.2764 19.7969 11.2037C22.0076 10.2996 24.409 9.99195 26.7619 10.208C29.1075 10.425 31.4046 11.1605 33.4119 12.3459C35.9651 13.8549 38.063 16.0972 39.2179 18.9264C39.8417 20.4574 40.2653 22.1666 40.318 24.0401C40.3696 25.9041 40.0493 27.9167 39.1884 30.0452C38.0377 32.8955 36.514 34.6657 35.0915 36.3222C33.7807 37.8501 32.5595 39.2684 31.8809 41.4453C32.2655 41.536 32.5689 41.851 32.629 42.2672C32.7028 42.8036 32.3266 43.3009 31.7902 43.3747L31.4573 43.4221C31.3962 43.8942 31.3572 44.4 31.3393 44.9405L31.4478 44.9237C31.9852 44.8499 32.4815 45.2261 32.5552 45.7624C32.629 46.2988 32.2528 46.7972 31.7165 46.8699L31.3793 46.9183C31.4077 47.3535 31.432 47.7708 31.4046 48.2113L31.4604 48.2028C32.002 48.1375 32.491 48.5231 32.5595 49.0595C32.6248 49.6 32.2402 50.089 31.7028 50.1585L30.9768 50.2491C29.3172 54.5493 23.5628 55.4945 21.2204 51.2786C21.0766 51.2056 20.953 51.0985 20.8602 50.9666C20.7674 50.8347 20.7084 50.682 20.6883 50.522C20.6723 50.3927 20.6827 50.2615 20.7189 50.1364C20.5503 49.6348 20.4238 49.0858 20.3427 48.4799L20.3121 48.4842C19.7758 48.5579 19.2774 48.1807 19.2047 47.6443C19.1309 47.108 19.5071 46.6107 20.0434 46.5369L20.2773 46.5032C20.2942 45.9753 20.29 45.4726 20.2689 44.9974ZM21.8906 42.7857L29.8904 41.6487C30.5785 38.7499 32.0747 37.006 33.6975 35.1241C35.0304 33.5751 36.4498 31.9229 37.4877 29.3529C38.2495 27.471 38.5309 25.706 38.4877 24.0791C38.4445 22.4563 38.0725 20.959 37.5182 19.605C36.5225 17.1699 34.7017 15.231 32.4783 13.916C30.6996 12.8644 28.6702 12.2111 26.5975 12.0256C24.5344 11.8349 22.4269 12.1078 20.4849 12.8991C18.21 13.8296 16.1636 15.4829 14.6916 17.9696C13.5494 20.1845 13.0215 22.3057 13.0046 24.3425C12.9877 26.393 13.4851 28.3793 14.3892 30.3128C15.3101 32.2864 16.5388 33.6879 17.7158 35.0377C19.8896 37.5287 21.3321 39.4053 21.8906 42.7857ZM29.5658 43.6813L22.094 44.7414C22.1161 45.2176 22.1245 45.715 22.1161 46.2429L29.4921 45.1955C29.5005 44.6644 29.5226 44.1576 29.5658 43.6813ZM22.1551 48.2239C22.2067 48.6222 22.2847 48.9857 22.3837 49.324L29.5437 48.441C29.6006 48.0037 29.588 47.6064 29.5616 47.1733L22.1551 48.2239ZM23.4006 51.1838C24.9759 52.8328 27.5174 52.286 28.7619 50.522L23.4006 51.1838ZM49.1017 21.743C49.3313 21.7193 49.5632 21.7413 49.7842 21.8077C50.0052 21.874 50.2109 21.9835 50.3894 22.1297C50.7381 22.4142 50.9805 22.8315 51.03 23.3141C51.0796 23.7956 50.9268 24.254 50.6444 24.6017C50.3599 24.9505 49.9405 25.1918 49.46 25.2424L45.713 25.6354C45.2314 25.6849 44.7741 25.5342 44.4253 25.2497C44.2459 25.1042 44.0969 24.9247 43.9869 24.7214C43.877 24.5182 43.8083 24.2952 43.7847 24.0654C43.7362 23.5838 43.8858 23.1265 44.1703 22.7777C44.4548 22.4289 44.8732 22.1866 45.3547 22.1371L49.1017 21.743ZM41.6646 6.76758C41.9354 6.36295 42.3443 6.10585 42.7826 6.01944L42.8258 6.01101C43.2526 5.93725 43.7109 6.0226 44.1019 6.28498C44.5054 6.55684 44.7636 6.96462 44.85 7.40508C44.9353 7.84342 44.8542 8.31759 44.5834 8.72117L42.4897 11.8539C42.2178 12.2585 41.81 12.5156 41.3696 12.602C40.9312 12.6873 40.4571 12.6062 40.0535 12.3365C39.6488 12.0636 39.3917 11.6558 39.3043 11.2195L39.2969 11.1753C39.2231 10.7485 39.3096 10.2923 39.5709 9.90133L41.6646 6.76758ZM25.3942 1.71291C25.4068 1.22609 25.6144 0.790906 25.939 0.482168C26.1054 0.323428 26.3016 0.199163 26.5163 0.116521C26.7309 0.0338788 26.9598 -0.00551008 27.1897 0.000619815C27.6776 0.0122107 28.1128 0.219793 28.4215 0.543283C28.7303 0.867827 28.9157 1.31144 28.9041 1.7951L28.8082 5.54C28.8114 5.58426 28.8082 5.62746 28.8019 5.66961C28.764 6.11111 28.5638 6.50626 28.2645 6.79076C27.9331 7.10633 27.4913 7.27957 27.0338 7.27336C26.9895 7.27652 26.9463 7.27336 26.9052 7.26704C26.4773 7.23067 26.0775 7.03917 25.7809 6.72859C25.6222 6.56214 25.4979 6.36594 25.4153 6.15129C25.3326 5.93664 25.2932 5.70776 25.2994 5.47783L25.3942 1.71291ZM6.7329 8.1785C6.56404 8.02109 6.42789 7.83191 6.33224 7.62181C6.23659 7.41171 6.18332 7.1848 6.17548 6.95409C6.15862 6.5031 6.31352 6.04578 6.64333 5.69174C6.80075 5.52288 6.98992 5.38673 7.20002 5.29108C7.41013 5.19543 7.63703 5.14216 7.86775 5.13432C8.31874 5.11851 8.775 5.27341 9.12904 5.60217L11.8845 8.17218C12.2386 8.50199 12.4272 8.94666 12.443 9.39765C12.4588 9.84864 12.3028 10.3049 11.9751 10.6579C11.8178 10.8268 11.6286 10.9631 11.4185 11.0587C11.2084 11.1544 10.9815 11.2076 10.7507 11.2153C10.52 11.2241 10.2899 11.1874 10.0734 11.1071C9.857 11.0268 9.65853 10.9046 9.48942 10.7475L6.7329 8.1785ZM26.5164 20.7535C27.7629 20.9959 28.8419 21.8884 29.3256 23.0591C29.334 23.0759 29.334 23.0896 29.3425 23.0991C29.4405 23.3288 29.5111 23.5712 29.5574 23.8009C29.6565 24.3256 29.6723 24.843 29.5574 25.3667C29.314 26.6238 28.4236 27.6891 27.2508 28.1854C27.234 28.1938 27.2182 28.1938 27.2118 28.2001C26.5238 28.4889 25.6682 28.5784 24.9432 28.4151C23.6924 28.1738 22.6219 27.2781 22.1329 26.1096C22.1245 26.0938 22.1245 26.078 22.1161 26.0695C21.8284 25.3804 21.7399 24.5269 21.9032 23.8009C22.0908 22.8304 22.7167 21.8873 23.5375 21.3426C23.9327 21.0644 24.469 20.8463 24.9432 20.7535C25.4658 20.6513 25.9938 20.6376 26.5164 20.7535Z" fill="white"/>
</svg>
