<svg width="52" height="54" viewBox="0 0 52 54" fill="none" xmlns="http://www.w3.org/2000/svg">
<path d="M16.9288 19.954C19.5774 12.5379 23.771 11.5668 25.5368 12.0082C27.1873 12.0082 27.9209 13.8623 29.51 15.9811C31.4965 18.6297 29.51 22.6026 34.1451 22.6026C37.8531 22.6026 39.7682 25.1617 37.4558 27.2377C35.1331 27.8103 29.1738 25.8239 27.5236 28.562C26.5377 30.1978 30.1762 35.0721 31.5005 37.5C32.1626 39.9279 30.3045 45.7779 25.5368 51.0751C20.769 56.3723 19.5775 53.2823 19.5778 51.0751C19.9037 49.6613 22.0939 47.8968 24.2128 43.1293C26.8614 37.17 21.5642 37.17 19.5778 34.5214C17.5913 31.8728 16.9288 49.7508 10.9695 52.3994C6.20197 54.5183 6.3344 49.7508 6.99655 47.1022C9.20372 41.1429 14.2802 27.3701 16.9288 19.954Z" fill="white"/>
<circle cx="29.8358" cy="5.95936" r="5.95936" fill="white"/>
<path d="M6.70297 17.5084L10.6759 12.2112C10.8966 11.9905 11.7353 11.6815 13.3245 12.2112C14.9136 12.7409 15.7524 13.7562 15.9731 14.1976C16.8559 14.6391 17.0069 16.2592 14.6488 21.4813C11.9578 27.4407 10.6759 32.0757 8.68942 32.0757C6.70297 32.0757 -0.580692 30.7514 0.0814586 27.4407C0.743609 24.1299 2.73034 17.5084 3.39249 17.5084H6.70297Z" fill="white"/>
</svg>
