<svg width="16" height="16" viewBox="0 0 16 16" fill="none" xmlns="http://www.w3.org/2000/svg">
<path d="M7.803 0H7.80417V0.000260417C8.57266 0.000390625 9.31537 0.111589 10.0164 0.31875C10.1285 0.351823 10.2417 0.388281 10.3556 0.427604C10.9322 0.627083 11.4772 0.891797 11.982 1.21263C12.0176 1.23516 12.0281 1.28229 12.0057 1.31784C12.0034 1.32135 12.0007 1.32487 11.9979 1.32799L11.4396 2.04388C11.4148 2.07565 11.3698 2.08242 11.337 2.06016L11.3357 2.05938C11.1938 1.97174 11.0471 1.8888 10.8966 1.81081C10.7449 1.73242 10.5908 1.65977 10.4344 1.59349L10.4341 1.59336C9.62604 1.25052 8.73685 1.06094 7.80287 1.06094H7.80208V1.06068C6.87161 1.06068 5.98464 1.24961 5.17813 1.59076C5.04635 1.64648 4.91706 1.70612 4.79076 1.76927C4.1388 2.09531 3.54661 2.52461 3.03555 3.03568L3.03503 3.0362L3.03151 3.03945C2.86198 3.20925 2.70143 3.38802 2.55078 3.575C2.39922 3.76315 2.25716 3.9599 2.12604 4.16406C1.45195 5.21354 1.06081 6.4625 1.06081 7.80287V7.80365H1.06055C1.06055 8.73412 1.24948 9.62109 1.59063 10.4276C1.64635 10.5595 1.70599 10.6887 1.76914 10.815C2.09518 11.4668 2.52448 12.0591 3.03568 12.5702L3.0362 12.5707L3.03906 12.5737C3.20885 12.7434 3.38789 12.904 3.575 13.0548C3.76315 13.2065 3.9599 13.3484 4.16419 13.4796C5.21367 14.1536 6.46276 14.5448 7.803 14.5448H7.80378V14.5452C8.73451 14.5451 9.62122 14.3563 10.4277 14.0151C10.5596 13.9594 10.6888 13.8997 10.8151 13.8366C11.4671 13.5105 12.0594 13.0813 12.5703 12.5702L12.571 12.5695L12.5749 12.5658C12.7441 12.3961 12.9046 12.2176 13.0551 12.0309C13.2068 11.8427 13.3487 11.6458 13.4798 11.4417C14.154 10.3922 14.5451 9.14323 14.5451 7.803V7.80169H14.5454C14.5453 7.23932 14.4762 6.69219 14.3458 6.16927C14.3242 6.08216 14.3014 5.99766 14.2777 5.91589C14.1525 5.48529 13.9852 5.07227 13.7811 4.68177C13.7634 4.64805 13.7736 4.60716 13.8035 4.58529L14.525 4.01484C14.5578 3.9888 14.6056 3.9944 14.6315 4.02734C14.6339 4.03021 14.6358 4.03333 14.6375 4.03646H14.6378L14.6383 4.0375L14.6391 4.03906C14.7251 4.19505 14.8065 4.35482 14.8822 4.51771C14.9579 4.68073 15.0281 4.84648 15.0924 5.01432C15.4241 5.88047 15.6059 6.82083 15.6059 7.80313V7.80391H15.6056C15.6055 8.88086 15.387 9.90729 14.9922 10.8405C14.9283 10.9919 14.8592 11.1415 14.7854 11.2888C14.4074 12.0447 13.9108 12.7301 13.3204 13.3206L13.3199 13.3211L13.3171 13.3237C13.1202 13.5204 12.9128 13.7065 12.6958 13.8814C12.478 14.057 12.2504 14.2211 12.0143 14.3728C10.7995 15.153 9.35378 15.606 7.80287 15.606H7.80208V15.6057C6.72513 15.6056 5.6987 15.3871 4.76549 14.9923C4.61406 14.9284 4.46445 14.8592 4.31706 14.7854C3.56133 14.4076 2.87578 13.9108 2.28529 13.3206L2.28477 13.3199L2.28112 13.3161C2.08477 13.1195 1.89896 12.9125 1.72448 12.696C1.54896 12.4781 1.38477 12.2505 1.2332 12.0145C0.452995 10.7994 0 9.35378 0 7.803V7.80208H0.000260417C0.000390625 6.72513 0.21888 5.69883 0.613542 4.76549C0.677604 4.61406 0.746615 4.46458 0.820443 4.31706C1.19831 3.56133 1.69505 2.87591 2.28529 2.28542L2.28581 2.2849L2.28919 2.2819C2.48581 2.08542 2.69323 1.89935 2.90977 1.72474C3.12773 1.54922 3.35521 1.38503 3.59141 1.23346C4.80664 0.452865 6.25221 0 7.803 0ZM12.1181 2.12227L14.3017 0.0358073L14.4471 1.44297L16 1.63711L13.6617 3.90286L12.524 4.00052L7.98386 8.22318L7.5655 7.86289L11.8659 3.3707L12.1181 2.12227ZM7.803 5.33307H7.80495V5.33333C7.95182 5.33346 8.09479 5.34609 8.23242 5.37031C8.24844 5.37318 8.27109 5.37747 8.29974 5.38333H8.30013C8.41471 5.40677 8.52695 5.43841 8.63594 5.47747C8.67552 5.49154 8.69609 5.53503 8.6819 5.57461C8.67917 5.58242 8.675 5.58945 8.67018 5.5957L8.67031 5.59583L8.06081 6.3776C8.04375 6.39961 8.01667 6.40938 7.99076 6.40599V6.40625L7.98724 6.40573L7.96016 6.4026L7.95781 6.40221L7.93438 6.39974L7.93242 6.39948C7.8918 6.39596 7.8487 6.39401 7.803 6.39401H7.80221V6.39362C7.60807 6.39375 7.42266 6.43333 7.25417 6.50469C7.2263 6.51654 7.19922 6.52904 7.17331 6.54193C7.03763 6.60977 6.91393 6.69948 6.80677 6.80664L6.80625 6.80716L6.80273 6.81029C6.76836 6.84492 6.73581 6.88151 6.70508 6.91966C6.67344 6.95885 6.64375 7.00013 6.61628 7.04284C6.47565 7.26185 6.39414 7.52292 6.39414 7.80287V7.80365H6.39375C6.39388 7.99805 6.43346 8.18333 6.50482 8.35169C6.51667 8.37969 6.52917 8.40677 6.54206 8.43255C6.6099 8.56836 6.69974 8.69193 6.80677 8.79896L6.80729 8.79961L6.81042 8.80287C6.84505 8.83724 6.88164 8.87005 6.91979 8.90065C6.95898 8.93229 7.00026 8.96211 7.04297 8.98958C7.26211 9.13008 7.52318 9.21172 7.803 9.21172H7.80378V9.21198C7.99818 9.21198 8.18359 9.1724 8.35182 9.10104C8.37982 9.08919 8.40677 9.07669 8.43268 9.0638C8.56849 8.99583 8.69206 8.90612 8.79909 8.79896L8.79974 8.79831L8.80234 8.79583C8.82135 8.77669 8.83984 8.75729 8.8569 8.73815C8.87396 8.71901 8.8918 8.69753 8.91003 8.67435C8.99831 8.56237 9.07005 8.43685 9.12109 8.30182C9.12695 8.28607 9.1375 8.27331 9.15065 8.26484L10.1355 7.48594C10.1685 7.4599 10.2161 7.4655 10.2422 7.49844C10.2513 7.51003 10.2564 7.52344 10.2579 7.53711H10.2583L10.259 7.54297L10.2592 7.54701L10.2624 7.57956V7.58047H10.2626L10.2655 7.61589V7.61654C10.2701 7.67904 10.2727 7.74115 10.2727 7.80287V7.80365H10.2723C10.2721 8.1444 10.203 8.46914 10.0781 8.76445C10.0581 8.81198 10.0361 8.85938 10.0126 8.90638C9.89271 9.14583 9.73568 9.36289 9.54909 9.54935L9.54857 9.54987L9.5444 9.55339C9.48294 9.61458 9.41836 9.67279 9.35104 9.72708C9.28203 9.78255 9.2099 9.83464 9.13542 9.88242C8.75078 10.1293 8.29349 10.2727 7.80287 10.2727H7.80208V10.2723C7.46133 10.2721 7.13659 10.203 6.84141 10.0781C6.79388 10.0581 6.74635 10.0361 6.69948 10.0126C6.46003 9.89271 6.24297 9.73568 6.05651 9.54922L6.05599 9.5487L6.05169 9.54401C5.99076 9.48268 5.93294 9.41823 5.87878 9.35104C5.82318 9.28203 5.77122 9.21003 5.72331 9.13542C5.47643 8.75091 5.33307 8.29349 5.33307 7.803V7.80208H5.33333C5.33346 7.46146 5.40273 7.13672 5.52747 6.84154C5.54766 6.79401 5.56953 6.74661 5.59297 6.69961C5.71263 6.46055 5.86966 6.24362 6.05638 6.0569L6.05651 6.05677L6.05638 6.05664L6.0569 6.05612C6.11875 5.9944 6.18477 5.93516 6.25456 5.87891C6.32357 5.82331 6.39557 5.77135 6.47018 5.72344C6.85508 5.47643 7.31263 5.33307 7.803 5.33307ZM7.93229 6.39948C7.89232 6.39453 7.86315 6.35912 7.86563 6.31901L7.93229 6.39948ZM7.803 2.64453H7.8043V2.64479C8.26576 2.64492 8.71276 2.7056 9.13737 2.81901C9.20651 2.8375 9.27526 2.85742 9.34336 2.87878C9.69297 2.98789 10.0271 3.13372 10.3409 3.31146C10.3773 3.33216 10.3902 3.37865 10.3695 3.4151C10.3676 3.41823 10.3656 3.42148 10.3633 3.42435L10.3629 3.42474L9.79727 4.15026C9.77357 4.18047 9.73151 4.18802 9.69922 4.1694L9.6974 4.16849C9.62083 4.12852 9.54102 4.08984 9.45807 4.05339C9.37461 4.01654 9.29076 3.98268 9.20664 3.95195C8.76927 3.79232 8.29635 3.70521 7.80287 3.70521H7.80208V3.70495C7.23659 3.70495 6.69766 3.81992 6.20742 4.02721C6.13008 4.06003 6.05143 4.09635 5.97201 4.13594L5.96602 4.13867C5.5724 4.33646 5.21458 4.59622 4.90534 4.90534L4.90482 4.90586L4.90182 4.90885C4.79935 5.01159 4.70208 5.12018 4.61081 5.23346C4.51875 5.34779 4.43242 5.46745 4.35274 5.59154C3.94323 6.2293 3.7056 6.98841 3.7056 7.80287V7.80365H3.70534C3.70534 8.36914 3.82031 8.9082 4.0276 9.39831C4.06146 9.47852 4.09779 9.55716 4.13607 9.63372C4.33412 10.0297 4.59505 10.3896 4.90573 10.7003L4.90625 10.7008C5.01068 10.8053 5.12018 10.9038 5.23372 10.9952C5.34805 11.0872 5.46771 11.1736 5.5918 11.2533C6.22956 11.6629 6.9888 11.9004 7.80313 11.9004H7.80391V11.9007C8.3694 11.9007 8.90846 11.7858 9.3987 11.5785C9.47891 11.5445 9.55755 11.5083 9.63412 11.4699C10.0301 11.2719 10.39 11.0111 10.7007 10.7003L10.7012 10.6997C10.8057 10.5952 10.9042 10.4858 10.9956 10.3723C11.0876 10.2578 11.174 10.1383 11.2536 10.0141C11.6634 9.37617 11.901 8.61706 11.901 7.80287H11.9008V7.80091H11.901C11.901 7.54818 11.8779 7.30026 11.8339 7.0599C11.8272 7.02396 11.8194 6.98464 11.8104 6.94284C11.7678 6.74297 11.7107 6.54909 11.6408 6.36263C11.6283 6.32917 11.6408 6.29245 11.669 6.27318L12.4064 5.6901C12.4393 5.66406 12.487 5.66966 12.5129 5.7026C12.5168 5.70768 12.5199 5.71276 12.5224 5.71823L12.523 5.71953L12.5236 5.72057L12.5237 5.72044C12.5621 5.80755 12.5991 5.89818 12.6344 5.99206C12.6691 6.08477 12.7012 6.17787 12.7299 6.27109C12.8803 6.75534 12.9615 7.26979 12.9615 7.80273V7.80352H12.9611C12.9611 8.51537 12.8167 9.19388 12.5557 9.81068C12.5135 9.91055 12.4677 10.0095 12.4189 10.1072C12.169 10.6069 11.8408 11.06 11.4505 11.4501L11.4499 11.4507L11.447 11.4534C11.3171 11.5829 11.1803 11.7059 11.0374 11.8211C10.8934 11.9372 10.7428 12.0457 10.5868 12.1458C9.78346 12.6617 8.82786 12.9611 7.80287 12.9611H7.80208C7.09023 12.9609 6.41172 12.8165 5.79479 12.5556C5.69492 12.5133 5.59596 12.4676 5.49831 12.4188C4.9987 12.1688 4.54544 11.8406 4.15521 11.4504L4.15469 11.4499L4.15104 11.446C4.02175 11.3164 3.89922 11.1799 3.78438 11.0372C3.66823 10.8932 3.55977 10.7427 3.45951 10.5867C2.94362 9.78346 2.64427 8.82773 2.64427 7.80287V7.80208H2.64453C2.64466 7.09023 2.78919 6.41172 3.05013 5.79479C3.09232 5.69492 3.13802 5.59596 3.18685 5.49831C3.43659 4.99896 3.76484 4.54596 4.15508 4.1556L4.15521 4.15547L4.15508 4.15534L4.1556 4.15482L4.15898 4.15169C4.28867 4.02214 4.42539 3.89948 4.5681 3.78451C4.71224 3.66836 4.86263 3.5599 5.01862 3.45977C5.82227 2.94388 6.77813 2.64453 7.803 2.64453Z" fill="#006D36"/>
</svg>
