<svg width="159" height="158" xmlns="http://www.w3.org/2000/svg" xmlns:xlink="http://www.w3.org/1999/xlink" overflow="hidden"><defs><clipPath id="clip0"><rect x="981" y="55" width="159" height="158"/></clipPath></defs><g clip-path="url(#clip0)" transform="translate(-981 -55)"><path d="M128.276 122.796 128.276 109.629 147.615 111.275 134.711 91.426 142.611 93.5492 133.312 79.3621 139.056 80.0863 125.396 60.221 118.385 70.4581 104.428 49.0623 113.349 50.1815 92.1667 18.8942 70.9848 50.165 79.9052 49.0458 65.4054 71.2975 77.6669 68.0058 57.6042 99.1779 87.2292 93.5985 87.2292 113.859C77.4858 114.073 68.4008 116.196 61.3073 120.738 67.8906 124.162 74.8525 130.037 81.2054 139.896L151.417 139.896C146.117 133.164 137.871 127.272 128.276 122.796ZM117.973 71.0506 113.168 78.0783 106.584 67.9565ZM112.674 96.6763 103.177 111.275 121.792 109.629 121.792 120.146C113.332 116.948 104.47 114.938 95.4583 114.171L95.4583 93.5985Z" stroke="#000000" stroke-width="1.33333" fill="#70AD47" transform="matrix(1.00633 0 0 1 981 55)"/><path d="M52.9794 122.549 52.6667 122.549 52.6667 116.854 60.8958 118.5 54.8721 107.407 59.25 108.625 54.0656 100.741 57.2585 101.136 49.375 90.5208 42.1333 101.104 45.3098 100.709 42.5119 104.971 36.34 95.0963 43.1208 96.9231 35.1056 84.7275 40.0431 85.3365 28.3248 68.2363 16.6065 85.3035 21.544 84.6946 13.5288 96.8902 20.3096 95.0633 9.21667 112.147 24.6875 110.271 24.6875 126.729C17.8315 129.861 11.6748 134.338 6.58333 139.896L75.2475 139.896C67.7919 129.445 59.7273 124.639 52.9794 122.549ZM29.625 124.804 29.625 110.271 42.5448 111.752 39.5 118.5 47.7292 116.854 47.7292 122.137C41.5854 121.967 35.459 122.87 29.625 124.804Z" stroke="#000000" stroke-width="1.33333" fill="#70AD47" transform="matrix(1.00633 0 0 1 981 55)"/></g></svg>