<svg width="159" height="159" xmlns="http://www.w3.org/2000/svg" xmlns:xlink="http://www.w3.org/1999/xlink" overflow="hidden"><defs><clipPath id="clip0"><rect x="768" y="352" width="159" height="159"/></clipPath></defs><g clip-path="url(#clip0)" transform="translate(-768 -352)"><path d="M874 390.094C874 394.667 870.292 398.375 865.719 398.375 861.145 398.375 857.438 394.667 857.438 390.094 857.438 385.52 861.145 381.812 865.719 381.812 870.292 381.812 874 385.52 874 390.094Z" stroke="#000000" stroke-width="1.33333" fill="#ED7D31"/><path d="M908.781 429.844C908.781 433.503 905.815 436.469 902.156 436.469 898.497 436.469 895.531 433.503 895.531 429.844 895.531 426.185 898.497 423.219 902.156 423.219 905.815 423.219 908.781 426.185 908.781 429.844Z" stroke="#000000" stroke-width="1.33333" fill="#ED7D31"/><path d="M837.562 390.094C837.562 394.667 833.855 398.375 829.281 398.375 824.708 398.375 821 394.667 821 390.094 821 385.52 824.708 381.812 829.281 381.812 833.855 381.812 837.562 385.52 837.562 390.094Z" stroke="#000000" stroke-width="1.33333" fill="#ED7D31"/><path d="M799.469 429.844C799.469 433.503 796.503 436.469 792.844 436.469 789.185 436.469 786.219 433.503 786.219 429.844 786.219 426.185 789.185 423.219 792.844 423.219 796.503 423.219 799.469 426.185 799.469 429.844Z" stroke="#000000" stroke-width="1.33333" fill="#ED7D31"/><path d="M920.044 458.331 914.247 444.584C912.259 441.769 909.112 439.616 905.634 438.622 904.641 438.291 903.316 438.125 902.156 438.125 899.838 438.125 897.684 438.622 895.697 439.616L885.594 432.494 879.631 407.65C879.466 406.987 878.969 406.159 878.472 405.828 876.484 404.337 874.166 403.178 871.681 402.516 869.694 402.019 867.706 401.688 865.719 401.688 863.731 401.688 861.744 402.019 859.922 402.516 857.438 403.178 855.119 404.337 853.131 405.828 852.469 406.325 852.138 406.987 851.972 407.65L847.5 425.538 843.194 407.65C843.028 406.987 842.531 406.159 842.034 405.828 840.047 404.337 837.728 403.178 835.244 402.516 833.256 402.019 831.269 401.688 829.281 401.688 827.294 401.688 825.306 402.019 823.484 402.516 821 403.178 818.681 404.337 816.694 405.828 816.031 406.325 815.7 406.987 815.534 407.65L809.572 432.494 799.469 439.616C797.316 438.622 795.162 438.125 792.844 438.125 791.684 438.125 790.359 438.291 789.366 438.622 785.888 439.45 782.741 441.603 780.753 444.584L774.956 458.331C774.294 459.822 774.791 461.478 775.95 462.472 776.612 462.803 777.275 462.969 777.938 462.969 779.263 462.969 780.422 462.141 780.919 460.981L784.562 452.369 784.562 461.312 784.562 481.188 791.188 481.188 791.188 461.312 794.5 461.312 794.5 481.188 801.125 481.188 801.125 446.406 801.291 446.406 814.375 437.297C815.037 436.8 815.534 436.138 815.7 435.309L821 413.281 821 481.188 827.625 481.188 827.625 443.094 830.938 443.094 830.938 481.188 837.562 481.188 837.562 413.281 844.353 440.609C844.684 442.1 846.009 443.094 847.5 443.094 848.991 443.094 850.316 442.1 850.647 440.609L857.438 413.281 857.438 427.194 851.641 451.375 857.438 451.375 857.438 481.188 864.062 481.188 864.062 451.375 867.375 451.375 867.375 481.188 874 481.188 874 451.375 879.797 451.375 874 427.194 874 413.281 879.466 435.309C879.631 436.138 880.128 436.8 880.791 437.297L894.041 446.572 894.041 456.841 890.562 466.281 893.875 466.281 893.875 481.188 900.5 481.188 900.5 466.281 903.812 466.281 903.812 481.188 910.438 481.188 910.438 466.281 913.75 466.281 910.603 457.503 910.603 452.369 914.247 460.981C914.744 462.306 916.069 462.969 917.228 462.969 917.891 462.969 918.553 462.803 919.216 462.306 920.209 461.478 920.706 459.656 920.044 458.331Z" stroke="#000000" stroke-width="1.33333" fill="#ED7D31"/></g></svg>