<svg width="121" height="120" xmlns="http://www.w3.org/2000/svg" xmlns:xlink="http://www.w3.org/1999/xlink" overflow="hidden"><defs><clipPath id="clip0"><rect x="536" y="88" width="121" height="120"/></clipPath></defs><g clip-path="url(#clip0)" transform="translate(-536 -88)"><path d="M57.0125 85.175C57.0125 88.3092 54.4717 90.85 51.3375 90.85 48.2033 90.85 45.6625 88.3092 45.6625 85.175 45.6625 82.0408 48.2033 79.5 51.3375 79.5 54.4717 79.5 57.0125 82.0408 57.0125 85.175Z" stroke="#000000" stroke-width="1.33334" fill="#ED7D31" transform="matrix(1.00833 0 0 1 536 88)"/><path d="M62.5 103.75 62.5 98.075C62.4815 97.1908 62.069 96.3609 61.375 95.8125 59.7442 94.5555 57.8784 93.6375 55.8875 93.1125 54.3848 92.6513 52.8219 92.4152 51.25 92.4125 49.6798 92.4368 48.1199 92.6721 46.6125 93.1125 44.6437 93.6954 42.7881 94.6084 41.125 95.8125 40.431 96.3609 40.0185 97.1908 40 98.075L40 103.75Z" stroke="#000000" stroke-width="1.33334" fill="#ED7D31" transform="matrix(1.00833 0 0 1 536 88)"/><path d="M81.8375 85.175C81.8375 88.3092 79.2967 90.85 76.1625 90.85 73.0283 90.85 70.4875 88.3092 70.4875 85.175 70.4875 82.0408 73.0283 79.5 76.1625 79.5 79.2967 79.5 81.8375 82.0408 81.8375 85.175Z" stroke="#000000" stroke-width="1.33334" fill="#ED7D31" transform="matrix(1.00833 0 0 1 536 88)"/><path d="M87.5 103.75 87.5 98.075C87.4815 97.1908 87.069 96.3609 86.375 95.8125 84.7443 94.5555 82.8784 93.6375 80.8875 93.1125 79.3848 92.6513 77.8219 92.4152 76.25 92.4125 74.6797 92.4368 73.1199 92.6721 71.6125 93.1125 69.6438 93.6954 67.7881 94.6084 66.125 95.8125 65.431 96.3609 65.0185 97.1908 65 98.075L65 103.75Z" stroke="#000000" stroke-width="1.33334" fill="#ED7D31" transform="matrix(1.00833 0 0 1 536 88)"/><path d="M106.838 85.175C106.838 88.3092 104.297 90.85 101.162 90.85 98.0283 90.85 95.4875 88.3092 95.4875 85.175 95.4875 82.0408 98.0283 79.5 101.162 79.5 104.297 79.5 106.838 82.0408 106.838 85.175Z" stroke="#000000" stroke-width="1.33334" fill="#ED7D31" transform="matrix(1.00833 0 0 1 536 88)"/><path d="M112.5 103.75 112.5 98.075C112.481 97.1908 112.069 96.3609 111.375 95.8125 109.744 94.5555 107.878 93.6375 105.887 93.1125 104.385 92.6513 102.822 92.4152 101.25 92.4125 99.6797 92.4368 98.1199 92.6721 96.6125 93.1125 94.6437 93.6954 92.7881 94.6084 91.125 95.8125 90.431 96.3609 90.0185 97.1908 90 98.075L90 103.75Z" stroke="#000000" stroke-width="1.33334" fill="#ED7D31" transform="matrix(1.00833 0 0 1 536 88)"/><path d="M34.275 32.7C34.275 36.8007 30.9507 40.125 26.85 40.125 22.7493 40.125 19.425 36.8007 19.425 32.7 19.425 28.5993 22.7493 25.275 26.85 25.275 30.9507 25.275 34.275 28.5993 34.275 32.7Z" stroke="#000000" stroke-width="1.33334" fill="#ED7D31" transform="matrix(1.00833 0 0 1 536 88)"/><path d="M70.6375 29.8375C69.9026 29.1131 68.7224 29.1131 67.9875 29.8375L51.8375 45.9875C50.5469 45.6232 49.1599 45.9759 48.2 46.9125 47.9375 47.175 43.275 54.8 43.275 54.8L41.875 48.8375C41.6896 48.0688 41.3061 47.3619 40.7625 46.7875 38.4586 44.9251 35.8071 43.5399 32.9625 42.7125 30.9515 42.2824 28.9056 42.0355 26.85 41.975 24.7761 42.007 22.7159 42.3181 20.725 42.9 17.8546 43.6525 15.1921 45.0457 12.9375 46.975 12.389 47.5459 12.0047 48.254 11.825 49.025 11.825 49.025 6.4375 71.65 6.4375 72.025 6.4375 74.0961 8.11644 75.775 10.1875 75.775 11.8472 75.7324 13.2814 74.6034 13.7125 73L17.6125 56.8625 17.6125 108.75 25 108.75 25 75.3625 28.75 75.3625 28.75 108.75 36.125 108.75 36.125 56.625 37.5 62.5C37.5954 62.9061 37.8652 63.2492 38.2375 63.4375 39.6749 64.5407 41.426 65.158 43.2375 65.2 44.417 65.3651 45.5858 64.8343 46.2375 63.8375L53.8625 51.3375C54.3499 50.569 54.5328 49.6462 54.375 48.75L70.625 32.5C71.361 31.7671 71.3666 30.5772 70.6375 29.8375Z" stroke="#000000" stroke-width="1.33334" fill="#ED7D31" transform="matrix(1.00833 0 0 1 536 88)"/><path d="M96.25 12.5 35 12.5C32.2386 12.5 30 14.7386 30 17.5L30 22C31.9112 22.5202 33.6415 23.5585 35 25L35 17.5 96.25 17.5 96.25 58.75 53.5875 58.75 50.5375 63.75 96.25 63.75C99.0114 63.75 101.25 61.5114 101.25 58.75L101.25 17.5C101.25 14.7386 99.0114 12.5 96.25 12.5Z" stroke="#000000" stroke-width="1.33334" fill="#ED7D31" transform="matrix(1.00833 0 0 1 536 88)"/></g></svg>