<svg width="151" height="150" xmlns="http://www.w3.org/2000/svg" xmlns:xlink="http://www.w3.org/1999/xlink" overflow="hidden"><defs><clipPath id="clip0"><rect x="82" y="69" width="151" height="150"/></clipPath></defs><g clip-path="url(#clip0)" transform="translate(-82 -69)"><path d="M106.25 31.25 106.25 23.4375C106.25 22.5745 105.55 21.875 104.688 21.875 103.825 21.875 103.125 22.5745 103.125 23.4375L103.125 31.25 46.875 31.25 46.875 23.4375C46.875 22.5745 46.1755 21.875 45.3125 21.875 44.4495 21.875 43.75 22.5745 43.75 23.4375L43.75 31.25 21.875 31.25 21.875 128.125 128.125 128.125 128.125 31.25ZM125 125 25 125 25 56.25 125 56.25ZM25 53.125 25 34.375 43.75 34.375 43.75 40.625C43.75 41.488 44.4495 42.1875 45.3125 42.1875 46.1755 42.1875 46.875 41.488 46.875 40.625L46.875 34.375 103.125 34.375 103.125 40.625C103.125 41.488 103.825 42.1875 104.688 42.1875 105.55 42.1875 106.25 41.488 106.25 40.625L106.25 34.375 125 34.375 125 53.125Z" fill="#4472C4" transform="matrix(1.00667 0 0 1 82 69)"/><path d="M64.0625 115.625 115.625 115.625 115.625 65.625 34.375 65.625 34.375 115.625 64.0625 115.625ZM64.0625 112.5 64.0625 100 85.9375 100 85.9375 112.5ZM64.0625 84.375 85.9375 84.375 85.9375 96.875 64.0625 96.875ZM60.9375 96.875 37.5 96.875 37.5 84.375 60.9375 84.375ZM89.0625 84.375 112.5 84.375 112.5 96.875 89.0625 96.875ZM89.0625 112.5 89.0625 100 112.5 100 112.5 112.5ZM112.5 68.75 112.5 81.25 89.0625 81.25 89.0625 68.75ZM85.9375 68.75 85.9375 81.25 64.0625 81.25 64.0625 68.75ZM60.9375 68.75 60.9375 81.25 37.5 81.25 37.5 68.75ZM37.5 112.5 37.5 100 60.9375 100 60.9375 112.5Z" fill="#4472C4" transform="matrix(1.00667 0 0 1 82 69)"/></g></svg>