<svg width="159" height="159" xmlns="http://www.w3.org/2000/svg" xmlns:xlink="http://www.w3.org/1999/xlink" overflow="hidden"><defs><clipPath id="clip0"><rect x="757" y="72" width="159" height="159"/></clipPath></defs><g clip-path="url(#clip0)" transform="translate(-757 -72)"><path d="M831.366 191.913C830.537 191.913 829.544 191.747 828.881 191.084 827.556 189.925 827.391 187.772 828.55 186.447L835.009 178.994C836.169 177.669 838.322 177.503 839.647 178.663 840.972 179.822 841.138 181.975 839.978 183.3L833.519 190.753C833.022 191.416 832.194 191.747 831.366 191.913Z" stroke="#000000" stroke-width="1.33333" fill="#ED7D31"/><path d="M821.263 188.103C820.103 188.269 819.109 187.938 818.116 187.109 816.459 185.619 816.294 182.969 817.784 181.312L825.403 172.534C826.894 170.878 829.544 170.712 831.2 172.203 832.856 173.694 833.022 176.344 831.531 178L823.912 186.778C823.25 187.606 822.256 188.103 821.263 188.103Z" stroke="#000000" stroke-width="1.33333" fill="#ED7D31"/><path d="M810.828 181.975C809.503 182.141 808.178 181.644 807.184 180.816 805.197 178.994 804.866 175.847 806.688 173.859L814.306 165.081C816.128 163.094 819.275 162.762 821.263 164.584 823.25 166.406 823.581 169.553 821.759 171.541L814.141 180.319C813.312 181.312 811.987 181.975 810.828 181.975Z" stroke="#000000" stroke-width="1.33333" fill="#ED7D31"/><path d="M798.737 175.847C797.412 176.012 796.088 175.516 795.094 174.688 793.106 172.866 792.775 169.719 794.597 167.731L803.375 157.794C805.197 155.806 808.344 155.475 810.331 157.297 812.319 159.119 812.65 162.266 810.828 164.253L802.05 174.191C801.056 175.184 799.897 175.681 798.737 175.847Z" stroke="#000000" stroke-width="1.33333" fill="#ED7D31"/><path d="M764.619 139.409 777.372 147.194C778.862 148.188 781.016 147.691 781.844 146.034L797.247 120.528C798.241 119.037 797.744 116.884 796.088 116.056L783.5 108.272 764.619 139.409Z" stroke="#000000" stroke-width="1.33333" fill="#ED7D31"/><path d="M871.944 161.106 845.278 138.25 843.456 136.594 832.028 149.678C830.372 151.666 828.053 152.825 825.403 152.991 825.072 152.991 824.741 152.991 824.575 152.991 822.091 152.991 819.772 152.163 818.116 150.506 813.975 146.863 813.644 140.569 817.122 136.428L826.894 125.166C819.275 124.172 809.503 128.147 799.4 123.178L784.991 147.028 796.253 160.113 800.559 155.144C802.05 153.322 804.369 152.328 806.853 152.328L806.853 152.328C808.841 152.328 810.828 152.991 812.319 154.316 814.141 155.806 814.969 157.959 815.134 160.278 815.963 159.947 816.956 159.781 817.95 159.781 819.938 159.781 821.925 160.444 823.416 161.769 825.237 163.425 826.231 165.578 826.231 167.897 826.894 167.731 827.722 167.566 828.384 167.566L828.384 167.566C830.206 167.566 831.862 168.228 833.353 169.387 834.844 170.712 835.672 172.534 835.838 174.522 836.334 174.356 836.997 174.191 837.659 174.191L837.659 174.191C839.316 174.191 840.806 174.688 841.966 175.847 843.291 177.006 844.119 178.663 844.284 180.319 844.45 182.141 843.787 183.797 842.628 185.122L836.997 191.581 839.316 193.403C840.475 194.066 841.8 194.562 843.291 194.397 846.934 194.066 849.584 190.919 849.253 187.275 849.253 187.275 849.253 187.109 849.253 187.109 849.75 187.275 850.412 187.275 850.909 187.275 854.553 186.944 857.203 183.797 856.872 180.153 856.872 180.153 856.872 179.987 856.872 179.987 857.369 180.153 858.031 180.153 858.528 180.153 862.172 179.822 864.822 176.675 864.491 173.031 864.491 172.7 864.325 172.369 864.325 172.038 865.319 172.534 866.478 172.866 867.803 172.7 871.447 172.369 874.097 169.222 873.766 165.578 873.931 163.756 873.103 162.266 871.944 161.106Z" stroke="#000000" stroke-width="1.33333" fill="#ED7D31"/><path d="M908.381 139.409 895.628 147.194C894.138 148.188 891.984 147.691 891.156 146.034L875.753 120.528C874.759 119.037 875.256 116.884 876.912 116.056L889.666 108.272 908.381 139.409Z" stroke="#000000" stroke-width="1.33333" fill="#ED7D31"/><path d="M873.766 123.841C860.019 128.809 850.081 124.006 838.984 121.853 838.819 121.853 838.156 121.688 838.156 121.688 836.169 121.522 834.016 122.184 832.525 123.841L819.441 138.747C816.956 141.562 817.287 145.703 820.103 148.022 821.594 149.181 823.25 149.844 825.072 149.678 826.728 149.512 828.384 148.85 829.544 147.359 829.544 147.359 843.125 131.791 843.125 131.791L874.097 158.456 874.097 158.456 874.097 158.456C874.925 159.284 875.256 159.616 875.919 160.609L887.844 146.863 873.766 123.841Z" stroke="#000000" stroke-width="1.33333" fill="#ED7D31"/></g></svg>