<svg width="150" height="150" xmlns="http://www.w3.org/2000/svg" xmlns:xlink="http://www.w3.org/1999/xlink" overflow="hidden"><defs><clipPath id="clip0"><rect x="287" y="68" width="150" height="150"/></clipPath></defs><g clip-path="url(#clip0)" transform="translate(-287 -68)"><path d="M412.603 115.959 411.314 118.808 421.375 123.838 421.375 188.725 394.812 175.444 394.812 149.25 391.688 149.25 391.688 175.444 363.562 189.506 363.562 124.619 375.094 118.853 373.803 116.005 362 121.906 330.75 106.281 299.5 121.906 299.5 193.781 330.75 178.156 362 193.781 393.25 178.156 424.5 193.781 424.5 121.906ZM329.188 175.444 302.625 188.725 302.625 123.838 329.188 110.556ZM360.438 189.506 332.312 175.444 332.312 110.556 360.438 124.619Z" fill="#ED7D31"/><path d="M393.192 95.3641C397.5 95.3591 401.526 97.5044 403.925 101.083 406.323 104.627 406.84 109.118 405.311 113.114L398.066 129.13 393.192 139.359 388.348 129.194 381.075 113.12C379.545 109.113 380.07 104.61 382.481 101.062 384.88 97.4942 388.9 95.357 393.2 95.3641M393.2 92.2391C387.86 92.2334 382.869 94.8883 379.889 99.3187 376.895 103.737 376.262 109.344 378.195 114.319L385.506 130.478 391.816 143.712C392.216 144.477 393.16 144.772 393.925 144.372 394.207 144.225 394.437 143.995 394.584 143.712L400.895 130.478 408.205 114.319C410.138 109.344 409.506 103.738 406.513 99.3187 403.532 94.8884 398.54 92.2337 393.2 92.2391Z" fill="#ED7D31"/><path d="M393.192 104.598C395.291 104.598 396.992 106.3 396.992 108.398 396.992 110.497 395.291 112.198 393.192 112.198 391.093 112.198 389.392 110.497 389.392 108.398 389.37 106.322 391.034 104.621 393.11 104.598 393.138 104.598 393.165 104.598 393.192 104.598M393.192 101.473C389.368 101.478 386.271 104.582 386.275 108.406 386.279 112.231 389.383 115.328 393.208 115.323 397.029 115.319 400.125 112.22 400.125 108.398 400.141 104.59 397.068 101.49 393.26 101.473 393.24 101.473 393.22 101.473 393.2 101.473Z" fill="#ED7D31"/></g></svg>