<svg width="160" height="159" xmlns="http://www.w3.org/2000/svg" xmlns:xlink="http://www.w3.org/1999/xlink" overflow="hidden"><defs><clipPath id="clip0"><rect x="299" y="349" width="160" height="159"/></clipPath></defs><g clip-path="url(#clip0)" transform="translate(-299 -349)"><path d="M44.7188 119.581C44.7188 125.984 39.5281 131.175 33.125 131.175 26.7219 131.175 21.5312 125.984 21.5312 119.581 21.5312 113.178 26.7219 107.987 33.125 107.987 39.5281 107.987 44.7188 113.178 44.7188 119.581Z" stroke="#000000" stroke-width="1.33333" fill="#5B9BD5" transform="matrix(1.00629 0 0 1 299 349)"/><path d="M140.781 119.581C140.781 125.984 135.591 131.175 129.188 131.175 122.784 131.175 117.594 125.984 117.594 119.581 117.594 113.178 122.784 107.987 129.188 107.987 135.591 107.987 140.781 113.178 140.781 119.581Z" stroke="#000000" stroke-width="1.33333" fill="#5B9BD5" transform="matrix(1.00629 0 0 1 299 349)"/><path d="M149.725 91.0938 140.947 84.4688C139.788 83.6406 138.959 82.3156 138.628 80.9906L135.316 69.5625C133.659 63.9312 128.525 59.9563 122.562 59.9563L106 59.9563 106 83.1438 106 93.0813 106 119.581 112.625 119.581C112.625 110.472 120.078 103.019 129.188 103.019 138.297 103.019 145.75 110.472 145.75 119.581 149.394 119.581 152.375 116.6 152.375 112.956L152.375 96.3938C152.375 94.2406 151.381 92.4187 149.725 91.0938ZM112.625 83.1438 112.625 66.5813 122.562 66.5813C125.544 66.5813 128.194 68.5688 128.856 71.3844L132.169 82.8125C132.169 82.9781 132.334 82.9781 132.334 83.1438L112.625 83.1438Z" stroke="#000000" stroke-width="1.33333" fill="#5B9BD5" transform="matrix(1.00629 0 0 1 299 349)"/><path d="M6.625 119.581 16.5625 119.581C16.5625 110.472 24.0156 103.019 33.125 103.019 42.2344 103.019 49.6875 110.472 49.6875 119.581L99.375 119.581 99.375 96.3938 6.625 96.3938 6.625 119.581Z" stroke="#000000" stroke-width="1.33333" fill="#5B9BD5" transform="matrix(1.00629 0 0 1 299 349)"/><path d="M16.5625 89.7688 26.5 89.7688 26.5 70.3906C33.6219 75.3594 41.075 79.8313 47.3688 83.1438L66.0844 31.8C53 28.8187 34.7812 27.3281 20.7031 27.9906L9.9375 57.4719C11.925 59.2937 14.2438 61.1156 16.5625 62.9375L16.5625 89.7688Z" stroke="#000000" stroke-width="1.33333" fill="#5B9BD5" transform="matrix(1.00629 0 0 1 299 349)"/><path d="M56.975 87.2844C76.1875 94.075 89.9344 85.6281 95.2344 71.0531 100.534 56.4781 95.0688 41.075 75.8562 34.2844 75.8562 34.2844 75.8562 34.2844 75.6906 34.2844L56.4781 87.2844C56.6438 87.1187 56.8094 87.2844 56.975 87.2844Z" stroke="#000000" stroke-width="1.33333" fill="#5B9BD5" transform="matrix(1.00629 0 0 1 299 349)"/></g></svg>