<svg width="130" height="130" xmlns="http://www.w3.org/2000/svg" xmlns:xlink="http://www.w3.org/1999/xlink" overflow="hidden"><defs><clipPath id="clip0"><rect x="79" y="349" width="130" height="130"/></clipPath></defs><g clip-path="url(#clip0)" transform="translate(-79 -349)"><path d="M189.771 393.417C188.146 388 184.625 383.396 179.75 380.552 179.75 380.146 179.75 379.74 179.75 379.333 179.885 370.125 172.302 362.542 162.958 362.542 160.115 362.542 157.542 363.219 155.24 364.438 152.125 359.969 147.115 357.125 141.292 357.125 133.844 357.125 127.479 362 125.177 368.771 122.74 367.417 119.896 366.604 116.917 366.604 107.573 366.604 99.9896 374.188 99.9896 383.531 99.9896 387.052 101.073 390.302 102.969 393.01 94.1667 395.312 87.8021 403.167 87.8021 412.646 87.8021 423.885 96.875 432.958 108.115 432.958 109.74 432.958 111.365 432.688 112.99 432.417 119.49 435.396 133.844 444.062 134.521 453.948L133.979 466.812C133.979 467.49 133.708 468.167 133.167 468.708L131.948 469.927C131.135 470.875 131.677 472.229 132.896 472.229L147.792 472.229C148.875 472.229 149.417 471.146 149.01 470.198 149.01 470.198 148.333 468.844 147.927 468.438 147.521 467.896 147.115 467.354 147.115 466.542L146.573 450.156C146.573 450.021 146.708 449.885 146.708 449.885 147.792 445.01 154.292 441.76 161.198 438.375 168.104 434.99 176.229 430.927 178.802 423.885 180.427 424.427 182.188 424.833 184.083 424.833 193.021 424.833 200.333 417.521 200.333 408.583 200.198 401.677 195.865 395.719 189.771 393.417ZM141.021 434.719C140.615 431.333 139.802 427.271 138.177 423.344 141.562 422.938 144.677 421.854 147.385 420.229 144.542 425.104 142.375 430.385 141.021 434.719ZM120.573 428.625C123.01 426.729 125.042 424.156 126.531 421.312 127.75 421.854 128.969 422.396 130.323 422.667 133.844 428.49 134.521 435.125 134.521 439.323 130.188 434.719 124.635 431.062 120.573 428.625ZM158.083 432.281C154.156 434.177 150.094 436.208 146.844 438.646 148.604 433.094 151.719 424.698 156.594 418.604 159.979 420.771 164.042 421.99 168.375 421.99 169.729 421.99 170.948 421.854 172.167 421.583 170.677 425.781 165.396 428.625 158.083 432.281Z" stroke="#000000" stroke-width="1.34367" fill="#70AD47"/></g></svg>