<svg width="158" height="158" xmlns="http://www.w3.org/2000/svg" xmlns:xlink="http://www.w3.org/1999/xlink" overflow="hidden"><defs><clipPath id="clip0"><rect x="521" y="338" width="158" height="158"/></clipPath></defs><g clip-path="url(#clip0)" transform="translate(-521 -338)"><path d="M576.958 449.917C572.712 450.114 567.791 452.122 562.821 454.953 563.002 450.756 563.249 445.539 563.479 442L566.244 442C570.34 441.991 573.658 438.673 573.667 434.578L573.667 430.167C573.547 428.59 572.171 427.408 570.594 427.528 569.184 427.635 568.063 428.756 567.956 430.167L567.956 434.578C567.956 435.487 567.219 436.223 566.31 436.223L563.792 436.223C563.89 433.886 563.956 431.697 563.956 429.936 563.956 421.707 562.722 408.244 562.722 408.244 562.722 406.403 561.23 404.911 559.389 404.911 557.548 404.911 556.056 406.403 556.056 408.244 556.056 408.244 554.871 421.065 554.822 429.36L553.176 429.36C552.267 429.36 551.53 428.623 551.53 427.714L551.53 420.292C551.53 418.678 550.222 417.37 548.609 417.37 546.995 417.37 545.688 418.678 545.688 420.292L545.688 427.747C545.724 431.821 549.036 435.104 553.11 435.104L554.954 435.104C555.217 441.688 555.859 453.9 556.122 459.183 548.301 464.806 540.958 471.065 534.167 477.896L618.252 477.896C618.252 477.896 590.306 449.275 576.958 449.917Z" stroke="#000000" stroke-width="1.33333" fill="#70AD47"/><path d="M651.86 468.136C652.074 465.832 652.568 460.22 652.765 455.743L654.197 455.743C657.159 455.922 659.714 453.683 659.925 450.723L659.925 442.642C659.776 441.424 658.667 440.557 657.449 440.707 656.436 440.831 655.638 441.629 655.514 442.642L655.514 450.723C655.47 451.408 654.882 451.929 654.197 451.892L652.864 451.892C652.864 446.279 651.91 437.622 651.91 437.622 651.796 436.2 650.55 435.139 649.128 435.253 647.863 435.354 646.859 436.358 646.758 437.622L646.906 465.058C641.181 461.516 635.163 458.471 628.917 455.957 629.46 449.275 630.563 433.969 631.123 421.74L634.562 421.74C642.276 421.731 648.527 415.48 648.536 407.767L648.536 385.186C648.371 382.218 645.832 379.946 642.864 380.11 640.126 380.262 637.94 382.448 637.788 385.186L637.788 407.767C637.788 409.585 636.315 411.059 634.497 411.059L631.205 411.059C631.106 395.407 628.884 371.295 628.884 371.295 628.884 367.832 626.077 365.025 622.614 365.025 619.151 365.025 616.343 367.832 616.343 371.295 616.343 371.295 614.154 396.476 614.154 412.062 614.154 415.354 614.286 419.485 614.483 423.896L609.875 423.896C608.057 423.896 606.583 422.422 606.583 420.604L606.583 406.697C606.748 403.729 604.475 401.19 601.507 401.026 598.539 400.862 596 403.134 595.836 406.102 595.825 406.3 595.825 406.499 595.836 406.697L595.836 420.67C595.845 428.396 602.116 434.652 609.842 434.643 609.853 434.643 609.864 434.643 609.875 434.643L615.092 434.643C615.537 441.967 616.063 449.028 616.425 453.719 612.111 454.395 608.039 456.156 604.592 458.837 610.617 463.7 616.355 468.91 621.774 474.44L625.148 477.896 664.648 477.896C665.652 477.896 659.892 473.32 651.86 468.136Z" stroke="#000000" stroke-width="1.33333" fill="#70AD47"/><path d="M547.333 372.562 555.562 372.562 555.562 375.854 547.333 375.854Z" stroke="#000000" stroke-width="1.33333" fill="#70AD47"/><path d="M558.591 366.539 552.863 360.696 555.2 358.31 560.911 364.152 558.591 366.539Z" stroke="#000000" stroke-width="1.33333" fill="#70AD47"/><path d="M578.604 374.406C578.604 379.86 574.183 384.281 568.729 384.281 563.275 384.281 558.854 379.86 558.854 374.406 558.854 368.952 563.275 364.531 568.729 364.531 574.183 364.531 578.604 368.952 578.604 374.406Z" stroke="#000000" stroke-width="1.33333" fill="#70AD47"/><path d="M567.083 352.812 570.375 352.812 570.375 361.042 567.083 361.042Z" stroke="#000000" stroke-width="1.33333" fill="#70AD47"/><path d="M581.896 372.562 590.125 372.562 590.125 375.854 581.896 375.854Z" stroke="#000000" stroke-width="1.33333" fill="#70AD47"/><path d="M578.867 366.539 584.595 360.696 582.258 358.31 576.547 364.152 578.867 366.539Z" stroke="#000000" stroke-width="1.33333" fill="#70AD47"/><path d="M558.591 382.059 552.863 387.918 555.2 390.288 560.911 384.445 558.591 382.059Z" stroke="#000000" stroke-width="1.33333" fill="#70AD47"/><path d="M567.083 387.573 570.375 387.573 570.375 395.802 567.083 395.802Z" stroke="#000000" stroke-width="1.33333" fill="#70AD47"/><path d="M578.867 382.059 584.595 387.918 582.258 390.288 576.547 384.445 578.867 382.059Z" stroke="#000000" stroke-width="1.33333" fill="#70AD47"/></g></svg>