<svg width="160" height="159" xmlns="http://www.w3.org/2000/svg" xmlns:xlink="http://www.w3.org/1999/xlink" overflow="hidden"><defs><clipPath id="clip0"><rect x="999" y="354" width="160" height="159"/></clipPath></defs><g clip-path="url(#clip0)" transform="translate(-999 -354)"><path d="M122.562 86.0422 139.291 69.3141 149.062 79.0859 149.062 52.5859 122.562 52.5859 132.334 62.3578 115.938 78.7547 87.7812 106.911 62.9375 82.0672 11.4281 133.577 18.3844 140.533 62.9375 95.9797 87.7812 120.823 122.562 86.0422Z" stroke="#000000" stroke-width="1.33333" fill="#ED7D31" transform="matrix(1.00629 0 0 1 999 354)"/><path d="M38.0938 33.125C38.0938 37.6986 34.3861 41.4062 29.8125 41.4062 25.2389 41.4062 21.5312 37.6986 21.5312 33.125 21.5312 28.5514 25.2389 24.8438 29.8125 24.8438 34.3861 24.8438 38.0938 28.5514 38.0938 33.125Z" stroke="#000000" stroke-width="1.33333" fill="#ED7D31" transform="matrix(1.00629 0 0 1 999 354)"/><path d="M109.594 75.7072 111.25 74.0509 115.043 70.2581 110.439 49.555C110.298 48.8216 109.898 48.1633 109.312 47.7 107.329 46.1435 105.086 44.9493 102.688 44.1722 98.3605 42.6932 93.6651 42.6932 89.3381 44.1722 86.9402 44.9511 84.6978 46.1453 82.7131 47.7 82.1401 48.1743 81.7434 48.8277 81.5869 49.555L79.5 59.2606 79.5 59.2606 77.3303 49.555C77.1784 48.8219 76.774 48.1654 76.1875 47.7 74.2038 46.1435 71.9611 44.9493 69.5625 44.1722 62.7626 41.9775 55.3168 43.299 49.6875 47.7 49.1144 48.1743 48.7178 48.8277 48.5612 49.555L46.375 58.9459C46.375 58.9459 46.375 58.9459 46.375 58.9459L44.2219 49.555C44.0566 48.8233 43.6478 48.1692 43.0625 47.7 41.0778 46.1453 38.8354 44.9511 36.4375 44.1722 32.1105 42.6932 27.4151 42.6932 23.0881 44.1722 20.6917 44.9546 18.45 46.1484 16.4631 47.7 15.8901 48.1743 15.4934 48.8277 15.3369 49.555L10.07 73.6037C9.59815 75.4564 10.7175 77.3407 12.5701 77.8126 12.6143 77.8239 12.6588 77.8343 12.7034 77.8438 12.8853 77.8601 13.0682 77.8601 13.25 77.8438 14.8339 77.8807 16.2223 76.7909 16.5625 75.2434L21.5312 53 21.5312 53 21.5312 64.7594 16.5625 89.4375 21.5312 89.4375 21.5312 114.099 28.1562 107.474 28.1562 89.4375 31.4688 89.4375 31.4688 104.162 38.0938 97.5366 38.0938 89.4375 43.0625 89.4375 38.0938 64.7759 38.0938 53.1822 38.0938 53.1822 43.0625 74.8128C43.2091 76.5315 44.6502 77.85 46.375 77.8438L46.375 77.8438C47.9218 77.8335 49.2556 76.7541 49.5881 75.2434L49.6875 74.5312 54.5237 53.2816C54.5237 53.2816 54.5237 53.2816 54.5237 53.2816L54.5237 81.0569 58.1841 77.38C60.7698 74.7913 64.9646 74.789 67.5533 77.3749 67.555 77.3765 67.5568 77.3783 67.5584 77.38L71.2188 80.9078 71.2188 53.2981C71.2188 53.2981 71.2188 53.2981 71.2188 53.2981L76.1875 75.26C76.5345 76.8008 77.9211 77.8823 79.5 77.8438L79.5 77.8438C81.0531 77.8413 82.3958 76.7601 82.7297 75.2434L87.6984 53.2816C87.6984 53.2816 87.6984 53.2816 87.6984 53.2816L87.6984 97.5034 87.6984 97.5034 94.3234 90.8784 94.3234 79.5 97.6359 79.5 97.6359 87.6322 104.261 81.0072 104.261 53.2981C104.261 53.2981 104.261 53.2981 104.261 53.2981L109.478 75.7238Z" stroke="#000000" stroke-width="1.33333" fill="#ED7D31" transform="matrix(1.00629 0 0 1 999 354)"/><path d="M104.327 33.125C104.327 37.6986 100.62 41.4062 96.0459 41.4062 91.4723 41.4062 87.7647 37.6986 87.7647 33.125 87.7647 28.5514 91.4723 24.8438 96.0459 24.8438 100.62 24.8438 104.327 28.5514 104.327 33.125Z" stroke="#000000" stroke-width="1.33333" fill="#ED7D31" transform="matrix(1.00629 0 0 1 999 354)"/><path d="M71.1525 33.125C71.1525 37.6986 67.4449 41.4062 62.8713 41.4062 58.2976 41.4062 54.59 37.6986 54.59 33.125 54.59 28.5514 58.2976 24.8438 62.8713 24.8438 67.4449 24.8438 71.1525 28.5514 71.1525 33.125Z" stroke="#000000" stroke-width="1.33333" fill="#ED7D31" transform="matrix(1.00629 0 0 1 999 354)"/></g></svg>