<svg width="36" height="40" viewBox="0 0 36 40" fill="none" xmlns="http://www.w3.org/2000/svg">
<path d="M17.5133 0C20.0394 0 22.2496 2.35352 23.7828 6.15885C23.9651 6.61458 24.1409 7.09635 24.3069 7.5944C24.8169 7.46419 25.315 7.35569 25.8011 7.26888C29.8278 6.51042 33.0016 7.10937 34.3623 9.23828C35.7229 11.3672 34.9319 14.4954 32.5524 17.832C31.998 18.6035 31.4025 19.3446 30.7685 20.0521C31.403 20.7615 31.9985 21.5047 32.5524 22.2786C34.9091 25.6315 35.6774 28.7663 34.3037 30.8887C32.93 33.0111 29.7464 33.5807 25.7295 32.7962C25.264 32.7051 24.7887 32.5944 24.3004 32.4707C24.1409 32.946 23.9749 33.4049 23.7991 33.8411C22.2659 37.6465 20.0556 40 17.5296 40C15.0035 40 12.777 37.6465 11.2438 33.8542C11.0615 33.3984 10.8857 32.9167 10.7197 32.4186C10.2075 32.5488 9.70949 32.6573 9.22555 32.7441C5.19886 33.5026 2.02503 32.9036 0.664352 30.791C-0.696326 28.6784 0.0946902 25.5111 2.47425 22.1745C3.02765 21.4023 3.62317 20.6611 4.2581 19.9544C3.62903 19.2425 3.03898 18.4971 2.49052 17.7214C0.133753 14.3685 -0.650753 11.2337 0.739221 9.11458C2.1292 6.99544 5.29651 6.42253 9.31344 7.20703C9.77894 7.29818 10.2542 7.40885 10.7425 7.53255C10.902 7.05729 11.068 6.59831 11.2438 6.16211C12.777 2.35352 14.9742 0 17.5133 0ZM17.4677 18.1641C18.0537 17.5553 18.4638 17.028 19.3655 16.9238C21.0615 16.7285 22.6207 18.4635 21.7614 20.179C21.208 21.2858 19.6455 22.6107 18.7405 23.5091L17.4677 24.7689L16.4196 23.763C15.1533 22.5293 13.0927 20.9961 13.0211 19.0983C12.9756 17.7669 14.027 16.9271 15.2347 16.9271C16.3121 16.9434 16.7646 17.4772 17.4677 18.1608V18.1641ZM29.5348 21.3509C28.3837 22.499 27.164 23.5763 25.8825 24.5768C25.6875 26.6642 25.325 28.7325 24.7985 30.7617C25.2249 30.8691 25.6448 30.9668 26.055 31.0449C29.346 31.696 31.8525 31.3704 32.79 29.9219C33.7275 28.4733 33.0016 26.0579 31.0745 23.3138C30.5958 22.6363 30.0819 21.9843 29.5348 21.3607V21.3509ZM5.49183 18.6491C6.64297 17.501 7.86266 16.4237 9.14417 15.4232C9.3391 13.3358 9.7016 11.2675 10.2282 9.23828C9.80172 9.13086 9.3818 9.0332 8.97164 8.95508C5.68063 8.30404 3.17412 8.62956 2.23662 10.0781C1.29912 11.5267 2.02503 13.9421 3.95211 16.6862C4.43082 17.3637 4.94477 18.0157 5.49183 18.6393V18.6491ZM22.5687 31.9661C20.8227 31.3875 19.1211 30.6825 17.4775 29.8568C15.8488 30.6577 14.1648 31.3408 12.4384 31.901C12.5849 32.3438 12.7412 32.7669 12.9039 33.1706C14.1539 36.2793 15.7913 38.2031 17.5133 38.2031C19.2353 38.2031 20.8727 36.2858 22.1357 33.1771C22.292 32.7897 22.4417 32.3861 22.5817 31.9661H22.5687ZM15.5048 28.8119C14.6194 28.3138 13.7275 27.7767 12.8388 27.1842C12.2496 26.8034 11.6735 26.4128 11.1168 26.0156C11.3043 27.4209 11.5771 28.8134 11.9339 30.1855C13.1522 29.79 14.3476 29.327 15.5146 28.7988L15.5048 28.8119ZM9.14092 24.5443C7.85639 23.5263 6.63455 22.4316 5.48206 21.2663C4.93076 21.8898 4.41247 22.5417 3.92933 23.2194C1.9762 25.9538 1.24052 28.3691 2.16826 29.821C3.09599 31.2728 5.59925 31.6113 8.89677 30.9896C9.32321 30.9115 9.76266 30.8138 10.1989 30.6999C9.68155 28.6797 9.32776 26.6212 9.14092 24.5443ZM12.458 8.03385C14.2037 8.61312 15.9052 9.31809 17.5491 10.1432C19.1776 9.34011 20.8617 8.65476 22.5882 8.09245C22.4417 7.64974 22.2854 7.22656 22.1357 6.83594C20.8727 3.71419 19.2353 1.79036 17.5133 1.79036C15.7913 1.79036 14.1539 3.71419 12.9039 6.83594C12.7477 7.22331 12.5979 7.62695 12.458 8.04688V8.03385ZM19.5315 11.1882C20.417 11.6862 21.3089 12.2233 22.1976 12.8158C22.7878 13.1999 23.3629 13.5905 23.9228 13.9876C23.7366 12.5773 23.4659 11.1794 23.1123 9.80143C21.8939 10.197 20.6985 10.6599 19.5315 11.1882ZM25.8857 15.4557C27.1702 16.4737 28.3921 17.5684 29.5446 18.7337C30.0959 18.1102 30.6142 17.4583 31.0973 16.7806C33.0504 14.0462 33.7861 11.6309 32.8584 10.179C31.9306 8.72721 29.4274 8.39844 26.1298 9.02018C25.7034 9.09831 25.264 9.19596 24.8278 9.3099C25.3489 11.3265 25.7071 13.3817 25.8987 15.4557H25.8857ZM28.3206 20.0391C27.6272 19.3294 26.8688 18.6165 26.042 17.9134C26.0745 18.6003 26.0875 19.2969 26.0875 20C26.0875 20.7031 26.0843 21.4323 26.042 22.1354C26.8558 21.4421 27.6142 20.7389 28.3206 20.0391ZM24.1702 16.3802C23.2479 15.6597 22.2627 14.9653 21.2145 14.2969C19.9873 13.4993 18.7535 12.7799 17.5394 12.1452C16.3317 12.7669 15.1077 13.4701 13.8838 14.248L13.8284 14.2839C12.7867 14.9349 11.7939 15.6445 10.8597 16.3509C10.7653 17.5293 10.7164 18.75 10.7164 20C10.7164 21.25 10.7653 22.4479 10.8564 23.6198C11.7679 24.3197 12.7379 25.0033 13.7535 25.6673C13.7934 25.6881 13.8315 25.712 13.8675 25.7389C15.0784 26.5234 16.2894 27.2298 17.4873 27.8548C18.708 27.2298 19.9417 26.5169 21.1754 25.7292C22.2269 25.0586 23.2262 24.362 24.167 23.6491C24.2614 22.4707 24.3102 21.25 24.3102 20C24.3102 18.75 24.2614 17.5521 24.1702 16.3802ZM15.5667 11.1719C14.387 10.6275 13.1773 10.1504 11.9436 9.74284C11.5836 11.1279 11.3075 12.5335 11.1168 13.9518C11.6897 13.5482 12.2811 13.1532 12.8909 12.7669L12.9267 12.7441C13.7948 12.1842 14.6748 11.6612 15.5667 11.1751V11.1719ZM6.70276 19.9609C7.39612 20.6706 8.15459 21.3835 8.98141 22.0866C8.95103 21.4008 8.93692 20.7053 8.93909 20C8.93909 19.2773 8.93909 18.5677 8.98467 17.8646C8.17086 18.5579 7.4124 19.2611 6.70602 19.9609H6.70276ZM19.4599 28.8249C20.6397 29.3692 21.8493 29.8464 23.083 30.2539C23.4431 28.8678 23.7192 27.4611 23.9098 26.0417C23.3369 26.4475 22.7455 26.8446 22.1357 27.2331C21.2438 27.8027 20.3486 28.3333 19.4599 28.8249Z" fill="#006D36"/>
</svg>
