<svg width="55" height="31" viewBox="0 0 55 31" fill="none" xmlns="http://www.w3.org/2000/svg">
<path d="M0.333135 14.9835C1.87308 13.1231 3.46714 11.4441 5.1026 9.95405C11.4884 4.14026 18.6543 1.03916 26.0558 0.885269C33.4435 0.73032 41.0222 3.51622 48.2517 9.47646C50.2098 11.0907 52.1361 12.9299 54.0146 14.9952C54.42 15.4399 54.4412 16.1011 54.0973 16.567C52.0034 19.5291 49.642 22.022 47.096 24.0555C41.4106 28.5947 34.7892 30.8372 28.0775 30.8786C21.3861 30.92 14.6161 28.7698 8.60912 24.5288C5.60459 22.4062 2.78791 19.7604 0.269457 16.6041C-0.117916 16.117 -0.0797093 15.4261 0.333135 14.9835ZM27.1691 9.71313C30.5748 9.71313 33.3352 12.4736 33.3352 15.8793C33.3352 19.285 30.5748 22.0454 27.1691 22.0454C23.7634 22.0454 21.0029 19.285 21.0029 15.8793C21.0029 15.2457 21.0985 14.6333 21.2757 14.0581C21.7267 15.2414 22.8719 16.082 24.2134 16.082C25.9486 16.082 27.3559 14.6747 27.3559 12.9395C27.3559 11.5916 26.5089 10.4433 25.3182 9.9965C25.9019 9.81289 26.5238 9.71313 27.1691 9.71313ZM38.5504 6.15567C39.5723 7.35261 40.3996 8.7028 41.002 10.1568C41.7364 11.9259 42.1418 13.8607 42.1418 15.8793C42.1418 17.8989 41.7364 19.8337 41.0031 21.6039C40.2495 23.4213 39.146 25.0728 37.7555 26.4646L37.5517 26.6652C40.3536 25.622 43.0482 24.1086 45.5507 22.1112C47.6861 20.4057 49.6855 18.3447 51.4929 15.927C49.901 14.2364 48.292 12.724 46.6768 11.3921C44.0002 9.18461 41.2811 7.44408 38.5504 6.15567ZM16.0424 25.8852C14.9122 24.6318 13.991 23.1852 13.3361 21.606C12.5825 19.7909 12.1952 17.8446 12.1963 15.8793C12.1963 13.8617 12.6007 11.9291 13.334 10.1621C14.061 8.4088 15.1117 6.82322 16.4075 5.48174C13.0644 6.89645 9.83068 9.01055 6.7752 11.7901C5.42736 13.018 4.11772 14.369 2.85371 15.8411C5.05484 18.4635 7.4746 20.6848 10.0376 22.4964C11.9681 23.8591 13.9803 24.9905 16.0424 25.8852ZM31.9396 4.3366C30.4771 3.7306 28.864 3.39417 27.1701 3.39417C25.4784 3.39417 23.8674 3.7306 22.4017 4.33873C20.8798 4.9702 19.5023 5.90202 18.3444 7.05989C17.1897 8.21564 16.26 9.59108 15.6275 11.114C15.0215 12.5776 14.685 14.1886 14.685 15.8793C14.685 17.5731 15.0215 19.1873 15.6296 20.653C16.2593 22.1694 17.1818 23.5467 18.3444 24.7061C19.497 25.8565 20.8745 26.7862 22.4028 27.4198C23.8674 28.0269 25.4784 28.3622 27.1701 28.3622C28.8629 28.3622 30.4761 28.0258 31.9417 27.4198C33.4657 26.7904 34.8412 25.8597 35.9959 24.7061C37.1506 23.5514 38.0803 22.1759 38.7096 20.6562C39.3167 19.1863 39.6531 17.5731 39.6531 15.8793C39.6531 14.1865 39.3167 12.5744 38.7096 11.1087C38.0803 9.58365 37.1506 8.20821 35.9959 7.05352C34.8433 5.90096 33.4657 4.9702 31.9396 4.3366Z" fill="#006D36"/>
</svg>
